<svg xmlns="http://www.w3.org/2000/svg" width="1536" height="960" viewBox="0 0 1536 960" role="img" aria-labelledby="title desc">
<title id="title">Go · lifecycle：依赖装配，资源生命周期</title>
<desc id="desc">浅色技术图形封面，无人物；用蓝绿结构图表达文章主题。</desc>
<defs><linearGradient id="paper" x2="1" y2="1"><stop stop-color="#fcfbf7"/><stop offset="1" stop-color="#f5f8f6"/></linearGradient>
<marker id="arrow" markerWidth="8" markerHeight="8" refX="7" refY="4" orient="auto"><path d="M1 1 L7 4 L1 7" fill="none" stroke="#83aeb0" stroke-width="1.6"/></marker></defs>
<rect width="1536" height="960" fill="url(#paper)"/>
<path d="M0 835 C330 700 570 995 1030 865 C1300 790 1430 780 1536 809 V960 H0Z" fill="#e5eeea" opacity=".5"/>
<path d="M0 895 C420 795 595 935 1000 915 C1290 900 1385 850 1536 870 V960 H0Z" fill="#dce9e4" opacity=".36"/>
<g font-family="'PingFang SC','Noto Sans CJK SC','Microsoft YaHei',sans-serif">
<text x="96" y="290" font-size="38" font-weight="600" fill="#65817e">Go · lifecycle</text>
<text x="91" y="445" font-size="96" font-weight="750" fill="#263641">依赖装配</text>
<text x="91" y="571" font-size="92" font-weight="750" fill="#263641">资源生命周期</text>
<path d="M1135 367 C1135 430 943 440 943 495" fill="none" stroke="#438b7e" stroke-width="3" stroke-linecap="round" marker-end="url(#arrow)" /><path d="M1135 367 C1135 430 1323 440 1323 495" fill="none" stroke="#438b7e" stroke-width="3" stroke-linecap="round" marker-end="url(#arrow)" /><rect x="1050" y="280" width="170" height="82" rx="16" fill="#dbece7" stroke="none" stroke-width="3"/><text x="1072" y="331" font-size="27" font-weight="500" fill="#438b7e">Service</text><rect x="850" y="510" width="180" height="82" rx="16" fill="#e3edf5" stroke="none" stroke-width="3"/><text x="872" y="561" font-size="27" font-weight="500" fill="#438b7e">Store</text><rect x="1240" y="510" width="180" height="82" rx="16" fill="#dbece7" stroke="none" stroke-width="3"/><text x="1262" y="561" font-size="27" font-weight="500" fill="#438b7e">Cache</text><path d="M1290 640 C1190 735 1010 735 935 642" fill="none" stroke="#82a8ce" stroke-width="3" stroke-linecap="round" marker-end="url(#arrow)" stroke-dasharray="7 11"/><text x="1010" y="780" font-size="26" font-weight="500" fill="#7892a2">reverse cleanup</text>
</g></svg>