<svg xmlns="http://www.w3.org/2000/svg" width="1536" height="960" viewBox="0 0 1536 960" role="img" aria-labelledby="title desc">
<title id="title">Java · collections：Map 的，并发边界</title>
<desc id="desc">浅色技术图形封面，无人物；用蓝绿结构图表达文章主题。</desc>
<defs><linearGradient id="paper" x2="1" y2="1"><stop stop-color="#fcfbf7"/><stop offset="1" stop-color="#f5f8f6"/></linearGradient>
<marker id="arrow" markerWidth="8" markerHeight="8" refX="7" refY="4" orient="auto"><path d="M1 1 L7 4 L1 7" fill="none" stroke="#83aeb0" stroke-width="1.6"/></marker></defs>
<rect width="1536" height="960" fill="url(#paper)"/>
<path d="M0 835 C330 700 570 995 1030 865 C1300 790 1430 780 1536 809 V960 H0Z" fill="#e5eeea" opacity=".5"/>
<path d="M0 895 C420 795 595 935 1000 915 C1290 900 1385 850 1536 870 V960 H0Z" fill="#dce9e4" opacity=".36"/>
<g font-family="'PingFang SC','Noto Sans CJK SC','Microsoft YaHei',sans-serif">
<text x="96" y="290" font-size="38" font-weight="600" fill="#65817e">Java · collections</text>
<text x="91" y="445" font-size="96" font-weight="750" fill="#263641">Map 的</text>
<text x="91" y="571" font-size="92" font-weight="750" fill="#263641">并发边界</text>
<rect x="813" y="290" width="68" height="44" rx="10" fill="#e1ebf4" stroke="none" stroke-width="3"/><path d="M891 312 C985 312 951 477 1038 477" fill="none" stroke="#82a8ce" stroke-width="3" stroke-linecap="round" marker-end="url(#arrow)" /><rect x="813" y="385" width="68" height="44" rx="10" fill="#e1ebf4" stroke="none" stroke-width="3"/><path d="M891 407 C985 407 951 477 1038 477" fill="none" stroke="#82a8ce" stroke-width="3" stroke-linecap="round" marker-end="url(#arrow)" /><rect x="813" y="480" width="68" height="44" rx="10" fill="#e1ebf4" stroke="none" stroke-width="3"/><path d="M891 502 C985 502 951 477 1038 477" fill="none" stroke="#82a8ce" stroke-width="3" stroke-linecap="round" marker-end="url(#arrow)" /><rect x="813" y="575" width="68" height="44" rx="10" fill="#e1ebf4" stroke="none" stroke-width="3"/><path d="M891 597 C985 597 951 477 1038 477" fill="none" stroke="#82a8ce" stroke-width="3" stroke-linecap="round" marker-end="url(#arrow)" /><rect x="1053" y="391" width="188" height="164" rx="24" fill="#dbece7" stroke="#83b6aa" stroke-width="3"/><text x="1081" y="462" font-size="31" font-weight="500" fill="#438b7e">shared</text><text x="1081" y="510" font-size="36" font-weight="650" fill="#263641">Future</text><path d="M1247 478 H1340" fill="none" stroke="#438b7e" stroke-width="3" stroke-linecap="round" marker-end="url(#arrow)" /><rect x="1352" y="435" width="68" height="86" rx="13" fill="#d5e8e2" stroke="none" stroke-width="3"/><text x="817" y="708" font-size="24" font-weight="500" fill="#7892a2">MANY REQUESTS</text><text x="1090" y="708" font-size="24" font-weight="500" fill="#7892a2">ONE LOAD</text>
</g></svg>